<svg xmlns="http://www.w3.org/2000/svg" xmlns:xlink="http://www.w3.org/1999/xlink" version="1.1" id="Layer_1" x="0px" y="0px" width="100px" height="78.0952380952px" viewBox="0 0 105 82" enable-background="new 0 0 105 82" xml:space="preserve">
<g>
	<path d="M67.45,38.21c2.386-0.735,4.701-1.243,6.837-1.59c-0.093-3.854-0.606-7.039-0.977-8.869   c-1.529,0.566-3.999,1.585-6.803,3.117c0.465,1.814,0.781,3.701,0.896,5.643C67.438,37.08,67.453,37.646,67.45,38.21z"/>
	<path d="M76.453,53.136c2.3-4.647,3.571-9.216,4.185-12.318c-8.436,0.364-26.668-1.547-32.941,23.198   c-0.422,1.665-1.195,4.001-1.822,5.779C47.808,69.527,66.508,73.23,76.453,53.136z"/>
	<path d="M80.278,52.645c-0.294,0.651-0.603,1.306-0.937,1.962c-3.69,7.25-8.723,12.306-15.028,15.132   C82.337,71.826,97.5,60.68,97.5,60.68S90.425,55.336,80.278,52.645z"/>
	<path d="M49.97,49.317c3.307-3.979,7.621-7.131,12.923-9.428c0.425-0.184,0.849-0.358,1.271-0.524   c0.051-0.875,0.057-1.757,0.005-2.646c-0.687-11.733-9.869-21.63-13.045-24.72c-2.019,2.018-6.491,6.902-9.557,13.308   c-2.413,5.043-3.47,9.912-3.183,14.584C43.182,42.243,47.052,45.395,49.97,49.317z"/>
	<path d="M22.501,53.768c-0.073-0.14-0.141-0.277-0.211-0.416c-8.953,2.861-8.482,2.56-14.79,7.328c0,0,14.662,10.778,32.285,9.155   C32.494,67.09,26.692,61.702,22.501,53.768z"/>
	<path d="M21.002,40.168c0.672,3.045,1.968,7.545,4.365,12.084c4.217,7.985,10.187,13.117,17.759,15.273   c0.175-0.484,1.199-8.642,4.928-14.881C42.058,41.77,27.632,40.313,21.002,40.168z"/>
	<path d="M36.04,31.073c-2.962-1.652-5.584-2.733-7.183-3.324c-0.36,1.796-0.86,4.894-0.97,8.638   c2.323,0.475,4.782,1.146,7.246,2.09C35.123,36.046,35.42,33.574,36.04,31.073z"/>
</g>
</svg>